<?xml version="1.0" encoding="UTF-8" standalone="no"?>
<!-- Created with Inkscape (http://www.inkscape.org/) -->

<svg
   width="210mm"
   height="297mm"
   viewBox="0 0 210 297"
   version="1.1"
   id="svg433"
   xml:space="preserve"
   inkscape:version="1.2.1 (9c6d41e4, 2022-07-14)"
   sodipodi:docname="logo.svg"
   xmlns:inkscape="http://www.inkscape.org/namespaces/inkscape"
   xmlns:sodipodi="http://sodipodi.sourceforge.net/DTD/sodipodi-0.dtd"
   xmlns="http://www.w3.org/2000/svg"
   xmlns:svg="http://www.w3.org/2000/svg"><sodipodi:namedview
     id="namedview435"
     pagecolor="#ffffff"
     bordercolor="#000000"
     borderopacity="0.25"
     inkscape:showpageshadow="2"
     inkscape:pageopacity="0.0"
     inkscape:pagecheckerboard="0"
     inkscape:deskcolor="#d1d1d1"
     inkscape:document-units="mm"
     showgrid="false"
     inkscape:zoom="0.59063552"
     inkscape:cx="52.485838"
     inkscape:cy="623.90423"
     inkscape:window-width="1647"
     inkscape:window-height="1005"
     inkscape:window-x="120"
     inkscape:window-y="25"
     inkscape:window-maximized="0"
     inkscape:current-layer="layer1" /><defs
     id="defs430" /><g
     inkscape:label="Layer 1"
     inkscape:groupmode="layer"
     id="layer1"><g
       id="g1348"
       inkscape:export-filename="logo.png"
       inkscape:export-xdpi="96"
       inkscape:export-ydpi="96"><rect
         style="opacity:0.97;fill:#ffffff;fill-opacity:1;stroke:#ffffff;stroke-width:0.102865;stroke-opacity:1"
         id="rect1211"
         width="163.05594"
         height="171.56728"
         x="23.472031"
         y="62.716362" /><path
         style="opacity:0.97;fill:#ffd25c;fill-opacity:1;stroke-width:1"
         d="m 117.63368,212.33211 c 16.36399,0.28106 44.39641,-10.26408 43.45249,-41.21267 0.95976,-12.10177 -6.291,-23.5098 -16.61353,-34.05607 C 132.30001,124.6269 117.45569,109.6985 116.73775,95.413559"
         id="path2019-5"
         sodipodi:nodetypes="ccsc" /><path
         style="opacity:0.97;fill:#ffd25c;fill-opacity:1;stroke-width:1"
         d="M 92.36632,212.55881 C 76.002332,212.83987 47.969911,202.29473 48.913831,171.34614 47.954071,159.24437 55.204832,147.83634 65.527363,137.29007 77.699989,124.8536 92.544315,109.9252 93.262248,95.640259"
         id="path2019"
         sodipodi:nodetypes="ccsc" /><rect
         style="opacity:0.97;fill:#ffd25c;fill-opacity:1;stroke-width:0.718926"
         id="rect2875"
         width="27.32579"
         height="144.24435"
         x="91.918358"
         y="76.377823" /><path
         style="fill:#ff6800;fill-opacity:1;stroke-width:0.0724851"
         d="m 106.31037,173.08625 0.10714,-0.22304 -0.38968,0.0323 c -0.21432,0.0178 -0.48944,-0.002 -0.61139,-0.045 l -0.22171,-0.0773 0.11165,0.23177 0.11165,0.23176 -0.22807,-0.2537 c -0.52306,-0.58185 -0.79409,-0.96887 -1.03727,-1.4812 -0.64536,-1.35964 -0.69316,-2.61928 -0.1504,-3.96389 0.13485,-0.33407 0.22179,-0.61569 0.19319,-0.62582 -0.20192,-0.0715 -0.53806,-0.33698 -0.70691,-0.55835 -0.22834,-0.29937 -0.3031,-0.76866 -0.21058,-1.32194 l 0.0583,-0.34833 0.0506,0.42478 c 0.0395,0.33146 0.0963,0.47043 0.25864,0.63257 0.29942,0.29902 0.60335,0.34193 0.85975,0.12139 0.16795,-0.14447 0.21025,-0.24878 0.23837,-0.58792 0.0188,-0.22676 0.0589,-0.42755 0.0891,-0.4462 0.0731,-0.0452 -0.11335,-1.04091 -0.30527,-1.63057 -0.88892,-2.73117 -3.31386,-5.0456 -6.331798,-6.04323 -1.454884,-0.48094 -3.636884,-0.68186 -4.934711,-0.45438 -2.33101,0.40856 -4.32664,1.63499 -5.45353,3.35152 -0.35481,0.54048 -0.73412,1.39364 -0.83843,1.88589 -0.0465,0.21934 -0.0393,0.22711 0.25535,0.27422 0.20933,0.0334 0.38158,0.12688 0.55644,0.30173 0.23013,0.23013 0.24998,0.28236 0.21733,0.57201 l -0.0359,0.31875 0.45553,-0.002 c 0.33456,-0.002 0.55821,0.0446 0.84218,0.17538 0.38628,0.17784 0.8578,0.55825 0.8578,0.69205 0,0.1032 -0.70108,0.62211 -1.13171,0.83764 -0.20383,0.10202 -0.53057,0.20672 -0.72608,0.23265 l -0.35548,0.0472 0.0257,0.26972 c 0.033,0.3462 -0.24162,0.69275 -0.64471,0.81352 -0.28245,0.0846 -0.28461,0.0881 -0.28586,0.45434 -0.002,0.63571 -0.19749,1.35342 -0.57778,2.12307 -0.73846,1.49452 -2.24488,2.73028 -3.87879,3.18189 -0.25884,0.0715 -0.83108,0.13415 -1.41346,0.15464 -1.19469,0.042 -1.91387,-0.10323 -2.95677,-0.59725 -0.84785,-0.40163 -1.43918,-0.82087 -2.03393,-1.44202 -0.25322,-0.26444 -0.53047,-0.51812 -0.61613,-0.56373 -0.0857,-0.0456 -0.51539,-0.33684 -0.95498,-0.6472 -1.08017,-0.76262 -2.1364,-1.2505 -2.1364,-0.98682 0,0.21599 -0.8177,0.27248 -1.2613,0.0871 -0.57397,-0.23982 -1.00283,-0.82961 -1.57518,-2.16629 -0.26162,-0.611 -0.32376,-0.82412 -0.26201,-0.89853 0.0639,-0.077 0.36602,-0.0926 1.43212,-0.0739 1.33911,0.0234 1.35499,0.0256 1.77818,0.24216 0.4826,0.24702 0.8296,0.70747 0.8531,1.13203 0.0129,0.23326 0.0457,0.26195 0.61803,0.54043 l 0.6044,0.2941 -0.0303,-0.29523 c -0.0939,-0.91328 0.30314,-2.32778 0.95951,-3.41837 l 0.37586,-0.62451 -0.18918,-0.19745 c -0.10404,-0.1086 -0.22115,-0.30895 -0.26023,-0.44522 -0.13976,-0.48731 -0.0581,-2.09709 0.10635,-2.09709 0.0466,0 0.34269,0.12884 0.65798,0.28631 0.31528,0.15747 0.57674,0.27979 0.58101,0.27182 0.23505,-0.43872 0.75237,-0.77734 1.45439,-0.952 0.62671,-0.15593 2.13041,-0.28776 2.22326,-0.19492 0.0516,0.0516 -0.008,0.37043 -0.19033,1.02346 -0.28196,1.00824 -0.53182,1.58531 -0.81923,1.89209 l -0.17656,0.18844 0.25854,0.56732 c 0.15443,0.33888 0.23209,0.59375 0.19288,0.63297 -0.0361,0.0361 -0.48539,0.0711 -0.99838,0.0778 -0.78382,0.0102 -0.97652,-0.01 -1.20713,-0.12419 -0.15092,-0.075 -0.28569,-0.12391 -0.29949,-0.10872 -0.10581,0.11648 -0.6227,1.04018 -0.74556,1.33234 -0.41505,0.98698 -0.48559,1.72562 -0.23981,2.51122 0.25737,0.82267 0.86366,1.66125 1.56091,2.15896 0.33717,0.24068 0.34671,0.24299 0.29961,0.0725 -0.0268,-0.0969 -0.0694,-0.36414 -0.0948,-0.59395 -0.0391,-0.35398 -0.0745,-0.43152 -0.23189,-0.5074 -0.10216,-0.0493 -0.28502,-0.23112 -0.40635,-0.40414 -0.20087,-0.28646 -0.22014,-0.36422 -0.21554,-0.86982 0.006,-0.6878 0.13015,-0.98304 0.87936,-2.09554 0.34398,-0.51078 0.59581,-0.81546 0.67401,-0.81546 0.15739,0 1.17976,1.50013 1.41921,2.08241 0.22394,0.54457 0.23327,1.15921 0.0242,1.59116 -0.13697,0.28295 -0.39238,0.55474 -0.5801,0.61731 -0.1027,0.0342 0.0603,0.74666 0.26209,1.1455 0.31552,0.62367 0.62904,0.79734 1.43942,0.79734 1.80034,0 3.6844,-1.56842 4.07002,-3.38815 0.16209,-0.76491 0.15665,-0.7861 -0.2266,-0.8826 -0.18311,-0.0461 -0.40813,-0.13312 -0.50007,-0.19336 -0.2168,-0.14205 -0.35569,-0.48345 -0.30328,-0.7455 0.0408,-0.20377 0.0349,-0.20794 -0.3442,-0.24707 -0.21211,-0.0219 -0.52844,-0.11256 -0.70297,-0.20149 -0.46394,-0.23639 -1.15088,-0.73539 -1.15088,-0.83601 0,-0.12082 0.45027,-0.50406 0.81747,-0.69576 0.22997,-0.12007 0.43608,-0.16072 0.82916,-0.16354 l 0.52311,-0.004 -0.0414,-0.26089 c -0.0757,-0.47786 0.22972,-0.84018 0.81442,-0.96598 0.21256,-0.0457 0.23255,-0.0804 0.37218,-0.64603 0.89267,-3.61592 4.35905,-6.22663 8.68129,-6.53832 0.807917,-0.0583 2.527597,0.11829 3.568291,0.36633 2.08363,0.49662 4.000188,1.52672 5.517738,2.96564 l 0.38782,0.36772 -0.0525,-0.2537 c -0.11177,-0.53967 -0.55093,-1.89026 -0.84978,-2.61337 -0.39386,-0.95301 -0.88019,-1.84785 -1.39187,-2.56102 -0.50994,-0.71074 -0.30019,-0.59943 0.49595,0.26319 1.09294,1.18424 1.88866,2.29312 2.71266,3.78025 0.52803,0.95297 0.46884,1.12969 0.62878,-1.87717 l 0.11567,-2.17455 -0.17693,-0.69396 c -0.44585,-1.74877 -1.3473,-3.22453 -2.6219,-4.29229 -0.27803,-0.23292 -0.51655,-0.47283 -0.53005,-0.53314 -0.0736,-0.3289 0.44957,-0.92561 0.88277,-1.00687 0.22093,-0.0414 0.52924,0.0105 0.85351,0.14371 0.10452,0.0429 0.10282,0.007 -0.0157,-0.33644 -0.31407,-0.90935 -0.0844,-1.50807 0.57864,-1.50807 h 0.20196 l 2.9e-4,-0.52551 c 2.2e-4,-0.38405 0.0434,-0.62309 0.16053,-0.88794 0.19218,-0.43472 1.02406,-1.86409 1.12574,-1.93429 0.11589,-0.08 0.24106,0.0297 0.43008,0.37686 0.0974,0.17885 0.32821,0.58612 0.51299,0.90506 0.40873,0.70549 0.57672,1.24385 0.53232,1.70593 l -0.033,0.34387 0.29654,0.0398 c 0.42814,0.0574 0.62297,0.3091 0.62297,0.80475 0,0.21204 -0.0493,0.52518 -0.1095,0.69587 -0.0602,0.1707 -0.0974,0.3225 -0.0825,0.33733 0.0148,0.0148 0.11515,-0.007 0.22294,-0.0476 0.1078,-0.041 0.35446,-0.0745 0.54813,-0.0745 0.39145,0 0.71446,0.20773 0.90952,0.58491 0.17145,0.33156 0.13295,0.51966 -0.1451,0.709 -0.40097,0.27305 -1.39072,1.34437 -1.73386,1.87676 -0.62223,0.96542 -0.99808,1.85539 -1.20172,2.84559 -0.12089,0.58778 -0.1207,0.7178 0.004,2.82691 0.0719,1.21594 0.13241,2.29159 0.13457,2.39034 0.003,0.12751 0.13168,-0.0511 0.4447,-0.61612 0.92516,-1.67003 2.05091,-3.17847 3.19042,-4.27495 0.40083,-0.38569 0.47627,-0.43789 0.31455,-0.21759 -1.01967,1.38891 -1.69281,2.79161 -2.28601,4.76363 -0.15539,0.51655 -0.28252,0.97236 -0.28252,1.0129 0,0.0406 0.25696,-0.16802 0.57103,-0.46348 1.74036,-1.6372 4.14513,-2.73145 6.74996,-3.07144 1.08727,-0.14192 2.86224,-0.10452 3.69674,0.0779 1.17028,0.2558 2.5273,0.79109 3.36469,1.32723 2.00585,1.28425 3.28087,3.0006 3.80482,5.12184 0.12162,0.49239 0.13154,0.50655 0.39302,0.56088 0.53971,0.11213 0.81842,0.45878 0.76142,0.94701 l -0.0281,0.2404 0.47298,0.002 c 0.31698,10e-4 0.58177,0.0503 0.80284,0.14943 0.37315,0.16722 0.86614,0.57196 0.86614,0.71108 0,0.13387 -0.70114,0.65427 -1.16256,0.86288 -0.21773,0.0984 -0.54327,0.20021 -0.72342,0.22618 l -0.32756,0.0472 0.0271,0.28389 c 0.0234,0.24526 -0.007,0.31813 -0.22455,0.53552 -0.17217,0.17216 -0.34625,0.26676 -0.55122,0.29954 l -0.29959,0.0479 v 0.34001 c 0,1.46593 1.44133,3.1996 3.1071,3.73728 0.52862,0.17062 1.55901,0.17847 1.87053,0.0142 0.38777,-0.20443 0.76418,-0.86391 0.85647,-1.50058 0.0425,-0.29323 0.0305,-0.33351 -0.11864,-0.39867 -0.0913,-0.0399 -0.26479,-0.21405 -0.3856,-0.38707 -0.19845,-0.2842 -0.21955,-0.36821 -0.2185,-0.86982 8.2e-4,-0.44908 0.0385,-0.63528 0.19619,-0.97393 0.2519,-0.54076 1.2691,-2.00956 1.39172,-2.00956 0.13053,0 1.17854,1.57169 1.38856,2.08241 0.22394,0.54457 0.23327,1.15921 0.0242,1.59116 -0.15802,0.32641 -0.47216,0.62948 -0.58208,0.56154 -0.0352,-0.0217 -0.0641,-0.0131 -0.0644,0.0191 -8.2e-4,0.11469 -0.13996,0.90853 -0.18302,1.04421 -0.068,0.21415 0.0505,0.16602 0.46756,-0.18998 0.5557,-0.47434 0.92002,-0.93888 1.21744,-1.55236 0.23061,-0.47565 0.26542,-0.62139 0.29496,-1.23473 0.0303,-0.62963 0.0134,-0.75346 -0.17853,-1.30905 -0.17409,-0.50389 -0.53556,-1.21245 -0.87749,-1.72007 -0.0486,-0.0721 -0.11462,-0.0644 -0.3105,0.0362 -0.19927,0.10243 -0.42912,0.12755 -1.15485,0.12621 -0.49833,-8.2e-4 -0.96174,-0.0238 -1.0298,-0.0509 -0.11087,-0.0441 -0.0975,-0.10603 0.12865,-0.59547 l 0.25238,-0.54625 -0.25075,-0.36452 c -0.29147,-0.42372 -0.44858,-0.82049 -0.77207,-1.94977 -0.25696,-0.89702 -0.24424,-0.9614 0.17943,-0.90819 0.12302,0.0155 0.56215,0.0638 0.97586,0.10744 1.12641,0.11883 1.63635,0.29952 2.07141,0.734 l 0.35911,0.35863 0.60424,-0.30355 c 0.33233,-0.16695 0.6212,-0.28659 0.64192,-0.26586 0.0207,0.0207 0.0708,0.36839 0.11131,0.77259 0.0887,0.88494 0.007,1.37318 -0.29334,1.74729 l -0.20528,0.25597 0.34985,0.57761 c 0.65368,1.07926 1.05782,2.42307 0.99401,3.30519 -0.0171,0.23577 -0.0126,0.41812 0.01,0.40522 0.0226,-0.0129 0.28934,-0.14303 0.59289,-0.28916 0.53529,-0.25771 0.5531,-0.27465 0.5918,-0.56318 0.0883,-0.65807 0.6412,-1.14266 1.49149,-1.30714 0.51349,-0.0993 2.45332,-0.0454 2.57016,0.0714 0.0682,0.0682 -0.26182,0.91479 -0.6922,1.77576 -0.32503,0.65024 -0.86254,1.1802 -1.33688,1.31809 -0.47545,0.13822 -1.11045,0.0506 -1.11045,-0.1533 0,-0.0851 -0.0494,-0.0855 -0.32552,-0.002 -0.4333,0.13041 -1.01327,0.46052 -1.84903,1.05244 -0.37873,0.26824 -0.77015,0.53006 -0.86982,0.58182 -0.0997,0.0518 -0.35229,0.28184 -0.56137,0.5113 -0.9974,1.09456 -2.50789,1.87348 -4.07834,2.10312 -3.30402,0.4831 -6.58752,-2.05383 -6.85814,-5.29882 -0.0362,-0.43456 -0.0742,-0.57695 -0.15359,-0.57695 -0.058,0 -0.21785,-0.0533 -0.35519,-0.1185 -0.31363,-0.14882 -0.48891,-0.47004 -0.42944,-0.787 l 0.0442,-0.23552 -0.36221,-0.0348 c -0.43575,-0.0419 -1.15425,-0.38874 -1.58756,-0.76643 l -0.31579,-0.27526 0.18295,-0.21743 c 0.10062,-0.11959 0.35689,-0.31283 0.56949,-0.42944 0.3251,-0.1783 0.47001,-0.21234 0.91158,-0.21411 l 0.52504,-0.002 -0.0406,-0.21821 c -0.0836,-0.44948 0.22504,-0.85817 0.74733,-0.98968 0.17949,-0.0452 0.30899,-0.12034 0.30899,-0.17929 0,-0.21618 -0.37973,-1.17283 -0.6717,-1.69221 -0.4398,-0.78233 -1.68267,-2.01134 -2.54825,-2.51981 -1.14646,-0.67346 -2.32952,-1.05416 -3.71702,-1.1961 -1.44027,-0.14733 -3.55123,0.18413 -5.01443,0.78738 -2.99992,1.23681 -5.20462,3.69946 -5.81479,6.49515 -0.12567,0.57584 -0.13353,0.72968 -0.0618,1.20977 0.0968,0.64796 0.25872,0.87622 0.62136,0.87622 0.33007,0 0.59237,-0.25181 0.75128,-0.72123 l 0.1332,-0.39347 0.0514,0.34267 c 0.0976,0.65065 -0.24453,1.33741 -0.79676,1.59946 l -0.256,0.12148 0.1366,0.26852 c 0.24832,0.48815 0.45154,1.27444 0.49092,1.89943 0.0846,1.34265 -0.43542,2.64067 -1.56812,3.91419 l -0.22565,0.2537 0.10714,-0.22304 z m -0.1442,-0.70234 c 0.15568,-0.089 0.37635,-0.27778 0.49037,-0.41942 0.41854,-0.51986 0.42894,-1.66051 0.0235,-2.57725 -0.21852,-0.49413 -0.81766,-1.35126 -0.90626,-1.29651 -0.17986,0.11116 -0.81162,1.19019 -0.93978,1.60513 -0.17374,0.5625 -0.19944,1.57185 -0.0492,1.93048 0.13932,0.33244 0.47432,0.70755 0.73225,0.81989 0.29408,0.1281 0.3206,0.12555 0.64906,-0.0623 z"
         id="path2771" /><g
         id="g1749"
         transform="matrix(0.14839741,0,0,0.14839741,89.171308,68.718979)"
         style="stroke:#fc3a00;stroke-width:5.53918;stroke-dasharray:none;stroke-opacity:1"><path
           style="fill:none;stroke:#fc3a00;stroke-width:5.53918;stroke-dasharray:none;stroke-opacity:1"
           d="m 90.603796,190.60633 c 8.78583,6.08961 18.188144,10.01381 19.925314,22.55696"
           id="path1710"
           sodipodi:nodetypes="cc" /><path
           style="fill:none;stroke:#fc3a00;stroke-width:5.53918;stroke-dasharray:none;stroke-opacity:1"
           d="M 91.355695,190.98227 C 96.530538,183.9602 109.09274,174.9781 84.588606,160.53038 51.277244,150.73128 39.238389,134.85431 40.978481,115.04051 42.406007,97.207259 47.266871,80.370783 79.325316,71.43038"
           id="path1808"
           sodipodi:nodetypes="cccc" /><path
           style="fill:none;stroke:#fc3a00;stroke-width:5.53918;stroke-dasharray:none;stroke-opacity:1"
           d="m 79.325316,71.430379 c 30.985854,2.854917 28.960154,20.436156 28.948104,20.677214"
           id="path2559"
           sodipodi:nodetypes="cc" /><path
           style="fill:none;stroke:#fc3a00;stroke-width:5.53918;stroke-dasharray:none;stroke-opacity:1"
           d="m 84.212656,90.603796 c -9.514618,16.287294 24.412024,30.850994 24.060764,0.751899"
           id="path2561"
           sodipodi:nodetypes="cc" /><path
           style="fill:none;stroke:#fc3a00;stroke-width:5.53918;stroke-dasharray:none;stroke-opacity:1"
           d="m 56.392404,104.51392 c 1.406394,-8.293805 6.556622,-16.348031 24.812657,-20.677213 35.262639,5.758929 9.881353,23.533273 3.007597,6.76709"
           id="path2572"
           sodipodi:nodetypes="ccc" /><path
           style="fill:none;stroke:#fc3a00;stroke-width:5.53918;stroke-dasharray:none;stroke-opacity:1"
           d="m 54.512656,113.16076 c -4.649279,14.7429 9.732385,23.93356 24.43671,31.95569"
           id="path2574"
           sodipodi:nodetypes="cc" /><path
           style="fill:none;stroke:#fc3a00;stroke-width:5.53918;stroke-dasharray:none;stroke-opacity:1"
           d="m 54.888608,114.66455 c 7.779318,10.25579 16.854105,1.07955 25.564555,-2.63164"
           id="path2576"
           sodipodi:nodetypes="cc" /><path
           style="fill:none;stroke:#fc3a00;stroke-width:5.53918;stroke-dasharray:none;stroke-opacity:1"
           d="m 56.392405,103.76202 c 12.573706,-5.67528 13.654423,-2.30229 22.93291,7.89494"
           id="path2578"
           sodipodi:nodetypes="cc" /><path
           style="fill:none;stroke:#fc3a00;stroke-width:5.53918;stroke-dasharray:none;stroke-opacity:1"
           d="M 79.325316,144.36455 C 70.594539,117.44484 104.37858,122.89381 110.15316,106.39367"
           id="path2580"
           sodipodi:nodetypes="cc" /><path
           style="fill:none;stroke:#fc3a00;stroke-width:5.53918;stroke-dasharray:none;stroke-opacity:1"
           d="m 110.52911,199.25316 c -6.46788,-9.44797 -10.32656,-10.769 0.37595,-22.55696"
           id="path2582"
           sodipodi:nodetypes="cc" /><path
           style="fill:none;stroke:#fc3a00;stroke-width:5.53918;stroke-dasharray:none;stroke-opacity:1"
           d="M 110.15316,169.55316 C 99.527164,148.24002 72.728561,141.52015 110.52911,116.92025"
           id="path2584"
           sodipodi:nodetypes="cc" /><path
           style="fill:none;stroke:#fc3a00;stroke-width:5.53918;stroke-dasharray:none;stroke-opacity:1"
           d="m 130.68446,191.00895 c -8.78583,6.08961 -18.18815,10.01381 -19.92532,22.55696"
           id="path1710-3"
           sodipodi:nodetypes="cc" /><path
           style="fill:none;stroke:#fc3a00;stroke-width:5.53918;stroke-dasharray:none;stroke-opacity:1"
           d="m 129.93256,191.38489 c -5.17484,-7.02207 -17.73704,-16.00417 6.76709,-30.45189 33.31136,-9.7991 45.35021,-25.67607 43.61012,-45.48987 -1.42752,-17.833246 -6.28839,-34.669722 -38.34683,-43.610125"
           id="path1808-9"
           sodipodi:nodetypes="cccc" /><path
           style="fill:none;stroke:#fc3a00;stroke-width:5.53918;stroke-dasharray:none;stroke-opacity:1"
           d="m 141.96294,71.833004 c -30.98586,2.854917 -28.96015,20.436156 -28.9481,20.677214"
           id="path2559-0"
           sodipodi:nodetypes="cc" /><path
           style="fill:none;stroke:#fc3a00;stroke-width:5.53918;stroke-dasharray:none;stroke-opacity:1"
           d="m 137.0756,91.006421 c 9.51461,16.287289 -24.41202,30.850989 -24.06076,0.751899"
           id="path2561-5"
           sodipodi:nodetypes="cc" /><path
           style="fill:none;stroke:#fc3a00;stroke-width:5.53918;stroke-dasharray:none;stroke-opacity:1"
           d="m 164.89585,104.91654 c -1.4064,-8.2938 -6.55662,-16.348026 -24.81266,-20.677208 -35.26263,5.758929 -9.88135,23.533268 -3.00759,6.76709"
           id="path2572-2"
           sodipodi:nodetypes="ccc" /><path
           style="fill:none;stroke:#fc3a00;stroke-width:5.53918;stroke-dasharray:none;stroke-opacity:1"
           d="m 166.7756,113.56338 c 4.64928,14.7429 -9.73239,23.93356 -24.43671,31.95569"
           id="path2574-2"
           sodipodi:nodetypes="cc" /><path
           style="fill:none;stroke:#fc3a00;stroke-width:5.53918;stroke-dasharray:none;stroke-opacity:1"
           d="m 166.39964,115.06717 c -7.77931,10.25579 -16.8541,1.07955 -25.56455,-2.63164"
           id="path2576-7"
           sodipodi:nodetypes="cc" /><path
           style="fill:none;stroke:#fc3a00;stroke-width:5.53918;stroke-dasharray:none;stroke-opacity:1"
           d="m 164.89585,104.16464 c -12.57371,-5.675275 -13.65443,-2.30229 -22.93291,7.89494"
           id="path2578-3"
           sodipodi:nodetypes="cc" /><path
           style="fill:none;stroke:#fc3a00;stroke-width:5.53918;stroke-dasharray:none;stroke-opacity:1"
           d="m 141.96294,144.76717 c 8.73077,-26.91971 -25.05327,-21.47074 -30.82784,-37.97088"
           id="path2580-7"
           sodipodi:nodetypes="cc" /><path
           style="fill:none;stroke:#fc3a00;stroke-width:5.53918;stroke-dasharray:none;stroke-opacity:1"
           d="m 110.75914,199.65578 c 6.46788,-9.44797 10.32656,-10.769 -0.37594,-22.55696"
           id="path2582-9"
           sodipodi:nodetypes="cc" /><path
           style="fill:none;stroke:#fc3a00;stroke-width:5.53918;stroke-dasharray:none;stroke-opacity:1"
           d="m 111.1351,169.95578 c 10.62599,-21.31314 37.42459,-28.03301 -0.37596,-52.63291"
           id="path2584-0"
           sodipodi:nodetypes="cc" /></g><g
         id="g1070"
         transform="translate(-1.0052149e-6,-65.178741)"
         style="stroke:#fff9f8;stroke-opacity:1;fill:#ffffff;fill-opacity:1"><rect
           style="opacity:0.97;fill:#ffffff;fill-opacity:1;stroke-width:0.507229;stroke:#fff9f8;stroke-opacity:1"
           id="rect2954"
           width="0.89593118"
           height="142.45251"
           x="96.927162"
           y="141.78053"
           ry="0.34575847" /><rect
           style="opacity:0.97;fill:#ffffff;fill-opacity:1;stroke-width:0.507229;stroke:#fff9f8;stroke-opacity:1"
           id="rect2954-8"
           width="0.89593118"
           height="142.45251"
           x="102.57277"
           y="141.78053"
           ry="0.34575847" /><rect
           style="opacity:0.97;fill:#ffffff;fill-opacity:1;stroke-width:0.507229;stroke:#fff9f8;stroke-opacity:1"
           id="rect2954-6"
           width="0.89593118"
           height="142.45251"
           x="108.21838"
           y="141.78053"
           ry="0.34575847" /><rect
           style="opacity:0.97;fill:#ffffff;fill-opacity:1;stroke-width:0.507229;stroke:#fff9f8;stroke-opacity:1"
           id="rect2954-5"
           width="0.89593118"
           height="142.45251"
           x="113.86401"
           y="141.78053"
           ry="0.34575847" /></g></g></g></svg>
